<?xml version="1.0" encoding="UTF-8" standalone="no"?>
<svg width="32px" height="20px" viewBox="0 0 32 20" version="1.1" xmlns="http://www.w3.org/2000/svg" xmlns:xlink="http://www.w3.org/1999/xlink" xmlns:sketch="http://www.bohemiancoding.com/sketch/ns">
    <title>leadout-svg-icon</title>
    <description>Created with Sketch (http://www.bohemiancoding.com/sketch)</description>
    <defs></defs>
    <g id="Logo" stroke="none" stroke-width="1" fill="none" fill-rule="evenodd" sketch:type="MSPage">
        <path d="M24.2659022,1.36625531 L18.6030712,19.9939886 L24.3824248,19.9939886 C25.180195,19.9939886 26.0085196,19.3966068 26.2321138,18.6610995 L31.4897464,1.36625531 C31.7135312,0.630121017 31.2475193,0.0333662628 30.450454,0.0333662628 L26.1155911,0.0333662628 C25.3178209,0.0333662628 24.4894964,0.63074804 24.2659022,1.36625531 Z" id="Rectangle-100" fill="#FFFFFF" sketch:type="MSShapeGroup"></path>
        <path d="M13.4017203,6.68750917 L9.35655059,19.9939886 L15.1359041,19.9939886 C15.9336743,19.9939886 16.761737,19.3974683 16.9851132,18.6626783 L21.0302829,5.35619888 L15.2509294,5.35619888 C14.4531592,5.35619888 13.6250965,5.95271916 13.4017203,6.68750917 Z" id="Rectangle-100-copy" fill="#FFFFFF" sketch:type="MSShapeGroup"></path>
        <path d="M2.53756131,12.008688 L0.514245522,18.664332 C0.291003421,19.3986811 0.757455297,19.9939886 1.55452066,19.9939886 L5.88938348,19.9939886 C6.68715368,19.9939886 7.51532043,19.3971259 7.73808978,18.664332 L10.1656212,10.6790315 L4.38626761,10.6790315 C3.58849742,10.6790315 2.76033066,11.2758941 2.53756131,12.008688 Z" id="Rectangle-100-copy-2" fill="#FFFFFF" sketch:type="MSShapeGroup"></path>
    </g>
</svg>